<svg id="Layer_1" data-name="Layer 1" xmlns="http://www.w3.org/2000/svg" viewBox="0 0 286.35 229.74"><defs><style>.cls-1{fill:#f15b27;stroke:#2b1010;stroke-miterlimit:10;stroke-width:0.25px;}</style></defs><path class="cls-1" d="M87.69,145.87s-11.41,50.23,25,58c-6.15,11.41-8.34,38.35-8.34,38.35h9.21s-.43-11,8.34-22.37,16.84-14.24,14.48-36.07c84.41,4,143.48,58.44,143.48,58.44h9.66S185.54,103.87,87.69,145.87Z" transform="translate(-19.09 -12.59)"/><path class="cls-1" d="M305.32,171.9s-10.84-1.72-16.23-5.48c-4.61-3.22-5.71-9.59-15.36-18.26,1.76-12.79,6.65-19.85,7.9-37.44-30.85,47.12-68.08,44.19-84.89,39.71,27.11,10.41,47.73,26.55,61.19,39.73-.87-13.24,7.46-13.23,12.73-12.33,32,5.48,34.66-5.93,34.66-5.93" transform="translate(-19.09 -12.59)"/><path class="cls-1" d="M196.74,150.43c-2.93-1.13-5.92-2.21-9-3.19A51.8,51.8,0,0,0,196.74,150.43Z" transform="translate(-19.09 -12.59)"/><path class="cls-1" d="M249.16,139.48a83.48,83.48,0,0,0,14.48-11.41s-.88-1.83,0-16.9C255.3,127.15,252.67,137.2,249.16,139.48Z" transform="translate(-19.09 -12.59)"/><path class="cls-1" d="M196.5,242.21c6.59,0-5.7,0,7,0-7.46-34.7,1.31-39.26,1.31-39.26s-22.38-9.59-37.29-10C167.55,192.9,167.55,208,196.5,242.21Z" transform="translate(-19.09 -12.59)"/><path class="cls-1" d="M79.79,148.61c-54.41,46.12-60.55,93.6-60.55,93.6H29.77s4.82-30.13,58.79-45.2C72.33,178.75,79.79,148.61,79.79,148.61Z" transform="translate(-19.09 -12.59)"/><path class="cls-1" d="M281.79,77.4A30.6,30.6,0,0,0,284.73,71Q283.29,74.25,281.79,77.4Z" transform="translate(-19.09 -12.59)"/><path class="cls-1" d="M83.75,140.37S42,32.55,194.33,100.18c55.59,24.67,73.86,5.76,87.46-22.78-7.26,12.21-29.78,32.69-87.46-23.8C120.6-18.62,31.09,12.5,53.91,87.39,53.91,87.39,59.18,114.8,83.75,140.37Z" transform="translate(-19.09 -12.59)"/></svg>