<?xml version="1.0" encoding="utf-8"?>
<!-- Generator: Adobe Illustrator 26.0.1, SVG Export Plug-In . SVG Version: 6.00 Build 0)  -->
<svg version="1.1" id="Layer_1" xmlns="http://www.w3.org/2000/svg" xmlns:xlink="http://www.w3.org/1999/xlink" x="0px" y="0px"
	 viewBox="0 0 600 300" style="enable-background:new 0 0 600 300;" xml:space="preserve">
<style type="text/css">
	.st0{fill:#F15B27;stroke:#2B1010;stroke-width:0.25;stroke-miterlimit:10;}
	.st1{fill:none;}
	.st2{fill:#010101;}
	.st3{font-family:'TempusSansITC';}
	.st4{font-size:130.8782px;}
</style>
<g>
	<path class="st0" d="M87.69,145.87c0,0-11.41,50.22,25.01,57.99c-6.14,11.41-8.34,38.35-8.34,38.35h9.21c0,0-0.44-10.96,8.34-22.37
		c8.81-11.46,16.84-14.24,14.48-36.07c84.41,4.03,143.48,58.44,143.48,58.44h9.65C289.53,242.21,185.54,103.87,87.69,145.87z"/>
	<path class="st0" d="M289.09,166.42c-4.61-3.22-5.7-9.59-15.36-18.26c1.76-12.78,6.65-19.85,7.9-37.44
		c-30.85,47.13-68.08,44.19-84.89,39.72c27.1,10.41,47.73,26.55,61.19,39.73c-0.88-13.24,7.46-13.23,12.72-12.33
		c32.03,5.48,34.66-5.94,34.66-5.94S294.48,170.18,289.09,166.42z"/>
	<path class="st0" d="M196.74,150.43c-2.94-1.13-5.92-2.21-9.01-3.19C187.73,147.24,191.08,148.92,196.74,150.43z"/>
	<path class="st0" d="M249.16,139.48c8.78-5.48,14.48-11.41,14.48-11.41s-0.88-1.83,0-16.89
		C255.3,127.15,252.67,137.2,249.16,139.48z"/>
	<path class="st0" d="M196.5,242.21c6.58,0-5.7-0.04,7.02,0c-7.46-34.7,1.32-39.27,1.32-39.27s-22.38-9.59-37.3-10.04
		C167.55,192.9,167.55,207.97,196.5,242.21z"/>
	<path class="st0" d="M79.79,148.61c-54.41,46.11-60.55,93.6-60.55,93.6h10.53c0,0,4.83-30.13,58.8-45.2
		C72.33,178.75,79.79,148.61,79.79,148.61z"/>
	<path class="st0" d="M281.79,77.4c2.13-3.58,2.95-6.45,2.95-6.45C283.77,73.15,282.79,75.3,281.79,77.4z"/>
	<path class="st0" d="M83.75,140.37c0,0-41.79-107.82,110.58-40.19c55.58,24.67,73.86,5.76,87.45-22.78
		c-7.25,12.2-29.78,32.69-87.45-23.81C120.6-18.62,31.09,12.5,53.91,87.39C53.91,87.39,59.18,114.8,83.75,140.37z"/>
</g>
<rect x="327.58" y="140.09" class="st1" width="272.42" height="133.75"/>
<text transform="matrix(0.9609 0 0 1 327.5791 239.2993)" class="st2 st3 st4">Orxy</text>
</svg>
